<svg width="28" height="28" viewBox="0 0 28 28" fill="none" xmlns="http://www.w3.org/2000/svg">
<path d="M28 0H-1.90735e-06V28H28V0Z" fill="#FF9900"/>
<path fill-rule="evenodd" clip-rule="evenodd" d="M14.3718 23.5281C11.2963 20.3765 6.06523 15.9027 6.3429 11.0361C6.79718 7.07972 10.2186 4.00478 14.3718 4.00478C18.5251 4.00478 21.9465 7.07972 22.4007 11.0361C22.5922 16.3499 17.8662 20.0266 14.3718 23.5281Z" fill="white"/>
<path d="M17.5353 12.0143C17.5353 13.6732 16.2268 15.0179 14.6127 15.0179C12.9987 15.0179 11.6902 13.6732 11.6902 12.0143C11.6902 10.3555 12.9987 9.01074 14.6127 9.01074C16.2268 9.01074 17.5353 10.3555 17.5353 12.0143Z" fill="#FF9900"/>
</svg>
