<svg width="37" height="37" viewBox="0 0 37 37" fill="none" xmlns="http://www.w3.org/2000/svg">
<path d="M28.3281 0H8.67188C3.88253 0 0 3.88253 0 8.67188V28.3281C0 33.1175 3.88253 37 8.67188 37H28.3281C33.1175 37 37 33.1175 37 28.3281V8.67188C37 3.88253 33.1175 0 28.3281 0Z" fill="#242938"/>
<path d="M12.2483 16.1819C12.2483 16.5337 12.2863 16.8188 12.3528 17.0281C12.4372 17.2635 12.5389 17.4924 12.6572 17.7127C12.7047 17.7888 12.7237 17.8648 12.7237 17.9314C12.7237 18.0265 12.6666 18.1216 12.543 18.2166L11.9439 18.6161C11.8584 18.673 11.7728 18.7016 11.6968 18.7016C11.6017 18.7016 11.5066 18.6541 11.4115 18.5685C11.2834 18.4308 11.1688 18.2812 11.0692 18.1216C10.9629 17.9389 10.8646 17.7517 10.7744 17.5605C10.0327 18.4354 9.1009 18.8728 7.97886 18.8727C7.18018 18.8727 6.54308 18.6445 6.07711 18.1881C5.61129 17.7317 5.37354 17.1232 5.37354 16.3625C5.37354 15.5542 5.65884 14.8981 6.23884 14.4037C6.81885 13.9093 7.58905 13.662 8.5684 13.662C8.89171 13.662 9.22457 13.6906 9.57636 13.7381C9.92815 13.7857 10.2895 13.8617 10.6699 13.9473V13.2531C10.6699 12.5304 10.5177 12.0264 10.223 11.7317C9.91861 11.4369 9.40523 11.2944 8.67304 11.2944C8.34018 11.2944 7.99793 11.3324 7.64614 11.418C7.29436 11.5035 6.95196 11.6082 6.61911 11.7413C6.51098 11.7896 6.39985 11.8309 6.28639 11.8649C6.21991 11.8839 6.17221 11.8935 6.1342 11.8935C6.00123 11.8935 5.93446 11.7984 5.93446 11.5986V11.1327C5.93446 10.9806 5.95354 10.8664 6.00109 10.8C6.04864 10.7335 6.1342 10.6668 6.26732 10.6002C6.60012 10.4291 6.99951 10.2865 7.46548 10.1724C7.9313 10.0487 8.42575 9.99173 8.9488 9.99173C10.0803 9.99173 10.9075 10.2484 11.4401 10.7618C11.963 11.2753 12.2292 12.0551 12.2292 13.101V16.1819H12.2483ZM8.38788 17.6272C8.70151 17.6272 9.02483 17.5701 9.36722 17.4559C9.70947 17.3419 10.0137 17.1326 10.2705 16.8474C10.4226 16.6668 10.5368 16.467 10.5937 16.2388C10.6507 16.0106 10.6888 15.7348 10.6888 15.4117V15.0122C10.4005 14.942 10.1085 14.8881 9.81411 14.8506C9.51761 14.8131 9.21906 14.794 8.92019 14.7935C8.28309 14.7935 7.81727 14.9172 7.50349 15.1739C7.18971 15.4306 7.03752 15.7919 7.03752 16.2674C7.03752 16.7143 7.1517 17.047 7.38931 17.2752C7.61767 17.513 7.95053 17.6272 8.38788 17.6272ZM16.023 18.6541C15.8519 18.6541 15.7377 18.6255 15.6617 18.559C15.5857 18.5019 15.5191 18.3688 15.4621 18.1881L13.2277 10.838C13.1704 10.6478 13.1419 10.5242 13.1419 10.4576C13.1419 10.3055 13.218 10.2198 13.3702 10.2198H14.302C14.4826 10.2198 14.6063 10.2484 14.6728 10.3149C14.7488 10.372 14.8059 10.5051 14.863 10.6858L16.4604 16.9805L17.9439 10.6858C17.9914 10.4956 18.0483 10.3721 18.1245 10.3149C18.2005 10.258 18.3337 10.2199 18.5048 10.2199H19.2654C19.4461 10.2199 19.5698 10.2484 19.6459 10.3149C19.7219 10.372 19.7885 10.5051 19.8265 10.6858L21.3289 17.0566L22.9738 10.6858C23.0309 10.4956 23.0975 10.3721 23.164 10.3149C23.2401 10.258 23.3638 10.2199 23.5349 10.2199H24.4191C24.5713 10.2199 24.6569 10.296 24.6569 10.4576C24.6569 10.5053 24.6474 10.5527 24.6378 10.6097C24.6284 10.6668 24.6093 10.7427 24.5713 10.8475L22.2798 18.1976C22.2227 18.3878 22.1561 18.5115 22.08 18.5685C22.004 18.6255 21.8803 18.6636 21.7187 18.6636H20.901C20.7203 18.6636 20.5967 18.635 20.5207 18.5685C20.4445 18.5019 20.378 18.3783 20.34 18.1881L18.8661 12.0551L17.4019 18.1786C17.3543 18.3688 17.2972 18.4923 17.2212 18.559C17.145 18.6255 17.0119 18.6541 16.8408 18.6541H16.023ZM28.2417 18.9108C27.7473 18.9108 27.2528 18.8537 26.7773 18.7396C26.302 18.6255 25.9311 18.5019 25.6838 18.3592C25.5317 18.2737 25.4271 18.1786 25.3891 18.093C25.3521 18.0091 25.3327 17.9185 25.332 17.8268V17.3419C25.332 17.1421 25.408 17.047 25.5507 17.047C25.6078 17.047 25.6649 17.0566 25.7218 17.0756C25.7789 17.0946 25.8645 17.1326 25.9596 17.1707C26.2954 17.3184 26.6461 17.43 27.0055 17.5035C27.378 17.5791 27.757 17.6173 28.1371 17.6176C28.7361 17.6176 29.202 17.513 29.5253 17.3039C29.8486 17.0946 30.0197 16.7903 30.0197 16.4005C30.0197 16.1343 29.9342 15.9155 29.763 15.7348C29.5919 15.5542 29.2686 15.3926 28.8026 15.2404L27.4239 14.8126C26.7298 14.5939 26.2162 14.2706 25.9025 13.8428C25.5887 13.4244 25.4271 12.9582 25.4271 12.4639C25.4271 12.0646 25.5127 11.7128 25.6838 11.4084C25.8549 11.1042 26.0831 10.838 26.3684 10.6288C26.6537 10.41 26.9771 10.2484 27.3573 10.1342C27.7377 10.0201 28.1371 9.97266 28.5555 9.97266C28.7646 9.97266 28.9833 9.9822 29.1926 10.0107C29.4113 10.0391 29.6108 10.0772 29.8106 10.1153C30.0008 10.1629 30.1815 10.2104 30.3526 10.2675C30.5237 10.3244 30.6568 10.3815 30.7519 10.4386C30.885 10.5146 30.9801 10.5907 31.0372 10.6762C31.0943 10.7524 31.1228 10.857 31.1228 10.9902V11.437C31.1228 11.6366 31.0468 11.7413 30.9041 11.7413C30.8279 11.7413 30.7044 11.7033 30.5428 11.6271C30.0008 11.38 29.3922 11.2564 28.7171 11.2564C28.1751 11.2564 27.7473 11.3419 27.4524 11.5226C27.1576 11.7033 27.0055 11.979 27.0055 12.3688C27.0055 12.6351 27.1006 12.8633 27.2908 13.0439C27.481 13.2246 27.8328 13.4053 28.3368 13.5669L29.687 13.9947C30.3715 14.2135 30.8661 14.5177 31.1608 14.9077C31.4555 15.2976 31.5982 15.7444 31.5982 16.2388C31.5982 16.6477 31.5126 17.0186 31.351 17.3419C31.1799 17.6652 30.9517 17.9503 30.6568 18.1786C30.3621 18.4163 30.0102 18.5874 29.6015 18.7112C29.1735 18.8443 28.7266 18.9108 28.2417 18.9108Z" fill="white"/>
<path fill-rule="evenodd" clip-rule="evenodd" d="M30.0389 23.532C26.9105 25.8426 22.3654 27.0692 18.4573 27.0692C12.9804 27.0692 8.04528 25.0438 4.31796 21.6778C4.02312 21.4115 4.28949 21.0502 4.64128 21.2593C8.67298 23.5984 13.646 25.0153 18.7902 25.0153C22.2608 25.0153 26.0738 24.2926 29.5825 22.8093C30.1054 22.5715 30.5523 23.1516 30.0389 23.532Z" fill="#FF9900"/>
<path fill-rule="evenodd" clip-rule="evenodd" d="M31.3417 22.0486C30.9423 21.5351 28.6983 21.8014 27.6808 21.9249C27.3766 21.9631 27.329 21.6967 27.6048 21.4971C29.3924 20.242 32.3305 20.6033 32.6729 21.0216C33.0152 21.4496 32.5778 24.3877 30.9043 25.795C30.6475 26.0137 30.4003 25.8995 30.5144 25.6144C30.8948 24.673 31.741 22.5525 31.3417 22.0486Z" fill="#FF9900"/>
</svg>
