<svg width="39" height="39" viewBox="0 0 39 39" fill="none" xmlns="http://www.w3.org/2000/svg">
<path d="M37.5389 10.0432L37.672 35.8319C37.6731 36.0432 37.6237 36.2526 37.5268 36.4483C37.4299 36.644 37.2873 36.8221 37.1071 36.9723C36.9269 37.1226 36.7128 37.2421 36.4768 37.324C36.2409 37.4059 35.9878 37.4486 35.7321 37.4497L2.63084 37.6206C2.11449 37.6232 1.61839 37.4564 1.25154 37.1569C0.884679 36.8573 0.677073 36.4494 0.674332 36.0228L0.500005 2.24058C0.497802 1.81372 0.700946 1.40329 1.06475 1.09957C1.42855 0.795845 1.92321 0.623719 2.43991 0.621052L25.8652 0.50017C26.4983 0.496523 27.1304 0.541684 27.7531 0.635066L27.7856 6.92498C27.7864 7.13641 27.8377 7.34554 27.9365 7.5404C28.0353 7.73527 28.1797 7.91204 28.3615 8.06061C28.5432 8.20917 28.7587 8.32661 28.9956 8.40619C29.2325 8.48578 29.4862 8.52595 29.7421 8.52441L37.3537 8.48513C37.4731 9.00028 37.5362 9.51964 37.5389 10.0432Z" fill="#FFBC44"/>
<path d="M28.4758 8.14411L0.648348 31.3895L0.497929 2.24058C0.496838 2.02908 0.546217 1.81939 0.643242 1.62351C0.740268 1.42762 0.883038 1.24938 1.06339 1.09897C1.24374 0.948557 1.45814 0.828929 1.69433 0.746924C1.93051 0.664918 2.18385 0.622142 2.43987 0.621042L25.8652 0.500159C26.4983 0.496513 27.1303 0.541674 27.7531 0.635055L27.7855 6.92497C27.7898 7.15693 27.8534 7.38542 27.972 7.5955C28.0906 7.80559 28.2636 7.99253 28.4758 8.14411Z" fill="#FFDDA1"/>
<path d="M37.3556 8.48519L29.7419 8.52448C29.4862 8.5258 29.2327 8.48547 28.9961 8.40578C28.7594 8.3261 28.5442 8.20862 28.3626 8.06008C28.1811 7.91154 28.0369 7.73484 27.9382 7.54008C27.8395 7.34532 27.7883 7.13633 27.7875 6.92505L27.755 0.635132C30.1528 0.942107 32.3709 1.8659 34.0941 3.27518C35.8173 4.68447 36.9599 6.50752 37.3556 8.48519Z" fill="#E3E3E3"/>
<path d="M35.7321 37.4497C35.988 37.4486 36.2412 37.4059 36.4773 37.3238C36.7134 37.2418 36.9276 37.1222 37.1078 36.9717C37.288 36.8213 37.4306 36.643 37.5274 36.4472C37.6242 36.2513 37.6733 36.0416 37.672 35.8302L37.539 10.0567C37.5335 8.794 37.2269 7.54507 36.6367 6.38129C36.0464 5.21751 35.1841 4.16169 34.099 3.27418C33.0139 2.38667 31.7274 1.68487 30.3128 1.2089C28.8983 0.732925 27.3835 0.492112 25.855 0.50022L2.43991 0.62105C1.92321 0.623717 1.42855 0.795843 1.06475 1.09956C0.700946 1.40329 0.497802 1.81372 0.500005 2.24058L0.674332 36.0228C0.675423 36.2341 0.726909 36.443 0.825847 36.6377C0.924786 36.8324 1.06924 37.009 1.25094 37.1573C1.43265 37.3057 1.64804 37.423 1.88482 37.5025C2.12159 37.582 2.37509 37.6221 2.63084 37.6206L35.7321 37.4497Z" stroke="#191919" stroke-linecap="round" stroke-linejoin="round"/>
<path d="M12.3244 29.5263C10.7939 29.5106 9.33314 28.9993 8.25629 28.1024C7.17943 27.2055 6.57249 25.9945 6.56596 24.73C6.55944 23.4655 7.15385 22.2483 8.22139 21.3403C9.28893 20.4323 10.7443 19.906 12.2746 19.8745M22.0116 19.8243L18.7035 19.8413C18.1575 19.8416 17.6259 19.9877 17.1879 20.2578C16.75 20.5278 16.4291 20.9074 16.2732 21.34C16.1173 21.7725 16.1346 22.2348 16.3226 22.6579C16.5106 23.0811 16.8593 23.4424 17.3166 23.6881L20.9097 25.6424C21.3662 25.8877 21.7145 26.2483 21.9027 26.6706C22.091 27.0929 22.1091 27.5544 21.9545 27.9865C21.7998 28.4186 21.4807 28.7982 21.0444 29.0689C20.6081 29.3396 20.0781 29.487 19.533 29.4891L16.2229 29.5062M31.7485 19.774L28.4343 19.7911C27.8884 19.7914 27.3568 19.9375 26.9188 20.2076C26.4809 20.4776 26.16 20.8572 26.0041 21.2897C25.8481 21.7223 25.8655 22.1846 26.0535 22.6077C26.2415 23.0309 26.5902 23.3922 27.0475 23.6379L30.6405 25.5922C31.0985 25.8368 31.4482 26.1973 31.6373 26.62C31.8265 27.0427 31.8451 27.5048 31.6902 27.9375C31.5354 28.3701 31.2154 28.7501 30.7782 29.0207C30.3409 29.2913 29.8097 29.438 29.2638 29.4389L25.9537 29.456M34.0962 3.27986C32.3725 1.86768 30.1545 0.939066 27.7552 0.625003L27.7877 6.92501C27.7886 7.13629 27.8398 7.34528 27.9385 7.54004C28.0372 7.7348 28.1814 7.9115 28.3629 8.06004C28.5444 8.20859 28.7597 8.32606 28.9964 8.40574C29.233 8.48543 29.4865 8.52576 29.7422 8.52444L37.3763 8.48505C36.9671 6.50886 35.8203 4.68897 34.0962 3.27986Z" stroke="#191919" stroke-linecap="round" stroke-linejoin="round"/>
</svg>
