<svg width="58" height="58" viewBox="0 0 58 58" fill="none" xmlns="http://www.w3.org/2000/svg">
<path d="M21.75 7.25H29V21.75H21.75C19.8272 21.75 17.9831 20.9862 16.6235 19.6265C15.2638 18.2669 14.5 16.4228 14.5 14.5C14.5 12.5772 15.2638 10.7331 16.6235 9.37348C17.9831 8.01384 19.8272 7.25 21.75 7.25Z" fill="#F4511E"/>
<path d="M36.25 21.75H29V7.25H36.25C38.1728 7.25 40.0169 8.01384 41.3765 9.37348C42.7362 10.7331 43.5 12.5772 43.5 14.5C43.5 16.4228 42.7362 18.2669 41.3765 19.6265C40.0169 20.9862 38.1728 21.75 36.25 21.75Z" fill="#FF8A65"/>
<path d="M29 29C29 33.0041 32.2459 36.25 36.25 36.25C40.2541 36.25 43.5 33.0041 43.5 29C43.5 24.9959 40.2541 21.75 36.25 21.75C32.2459 21.75 29 24.9959 29 29Z" fill="#29B6F6"/>
<path d="M21.75 21.75H29V36.25H21.75C19.8272 36.25 17.9831 35.4862 16.6235 34.1265C15.2638 32.7669 14.5 30.9228 14.5 29C14.5 27.0772 15.2638 25.2331 16.6235 23.8735C17.9831 22.5138 19.8272 21.75 21.75 21.75Z" fill="#7C4DFF"/>
<path d="M21.75 36.25H29V43.5C29 45.4228 28.2362 47.2669 26.8765 48.6265C25.5169 49.9862 23.6728 50.75 21.75 50.75C19.8272 50.75 17.9831 49.9862 16.6235 48.6265C15.2638 47.2669 14.5 45.4228 14.5 43.5C14.5 41.5772 15.2638 39.7331 16.6235 38.3735C17.9831 37.0138 19.8272 36.25 21.75 36.25Z" fill="#00E676"/>
</svg>
