<svg width="38" height="38" viewBox="0 0 38 38" fill="none" xmlns="http://www.w3.org/2000/svg">
<g clip-path="url(#clip0_43_23)">
<path d="M28.3277 0.0447492L8.67176 0.146181C3.88248 0.170895 0.0200349 4.07341 0.0447492 8.86269L0.146181 28.5187C0.170895 33.308 4.07341 37.1704 8.86269 37.1457L28.5187 37.0443C33.308 37.0195 37.1704 33.117 37.1457 28.3277L37.0443 8.67176C37.0195 3.88248 33.117 0.0200349 28.3277 0.0447492Z" fill="#E14E1D"/>
<path d="M6.9657 5.64723L8.28214 19.6013L24.283 19.5188L23.777 25.5094L18.6322 26.9289L13.4829 25.5645L13.1192 21.7215L8.48543 21.7454L9.18634 29.1536L18.656 31.7312L28.1106 29.056L29.3068 14.8767L12.4806 14.9636L12.0337 10.2382L29.7007 10.147L30.0904 5.5279L6.9657 5.64723Z" fill="white"/>
<path d="M18.528 5.58756L6.9657 5.64723L8.28214 19.6013L18.6001 19.5481L18.5763 14.9321L12.4806 14.9636L12.0337 10.2382L18.5519 10.2046L18.528 5.58756ZM18.6382 26.9269L18.6322 26.9289L13.4829 25.5645L13.1192 21.7215L8.48543 21.7454L9.18634 29.1536L18.656 31.7312L18.6631 31.7292L18.6382 26.9269Z" fill="#EBEBEB"/>
</g>
<defs>
<clipPath id="clip0_43_23">
<rect width="37" height="37" fill="white" transform="translate(0 0.19093) rotate(-0.295663)"/>
</clipPath>
</defs>
</svg>
