<svg width="38" height="38" viewBox="0 0 38 38" fill="none" xmlns="http://www.w3.org/2000/svg">
<path d="M28.3277 0.0447492L8.67176 0.146181C3.88248 0.170895 0.0200349 4.07341 0.0447492 8.86269L0.146181 28.5187C0.170895 33.308 4.07341 37.1704 8.86269 37.1457L28.5187 37.0443C33.308 37.0195 37.1704 33.117 37.1457 28.3277L37.0443 8.67176C37.0195 3.88248 33.117 0.0200349 28.3277 0.0447492Z" fill="#F0DB4F"/>
<path d="M9.88813 31.0602L12.7106 29.332C13.2619 30.2977 13.7631 31.1146 14.955 31.1085C16.0975 31.1026 16.8155 30.652 16.8066 28.9136L16.7455 17.0913L20.2226 17.0734L20.2839 28.9448C20.3025 32.546 18.1999 34.1961 15.12 34.212C12.3386 34.2264 10.7166 32.7942 9.88799 31.0599M22.1812 30.6241L25.0038 28.9704C25.7554 30.1836 26.7286 31.0727 28.4422 31.0639C29.883 31.0564 30.7979 30.3313 30.7928 29.3379C30.7866 28.1458 29.8407 27.7283 28.2475 27.0413L27.3766 26.6731C24.8625 25.6183 23.1914 24.2856 23.1768 21.4543C23.1634 18.8464 25.1401 16.8492 28.2447 16.8331C30.4552 16.8217 32.0487 17.5836 33.2014 19.5894L30.5032 21.3419C29.9015 20.277 29.2539 19.8582 28.2604 19.8633C27.242 19.8686 26.5996 20.5177 26.6039 21.362C26.6093 22.4051 27.2573 22.8241 28.7507 23.4623L29.6218 23.8302C32.5838 25.0818 34.2546 26.3644 34.2696 29.2702C34.2857 32.3998 31.8359 34.1261 28.5326 34.1431C25.304 34.1598 23.2098 32.6307 22.1812 30.6241Z" fill="#323330"/>
</svg>
