<svg width="28" height="28" viewBox="0 0 28 28" fill="none" xmlns="http://www.w3.org/2000/svg">
<path d="M28 0H-1.90735e-06V28H28V0Z" fill="#FF9900"/>
<path fill-rule="evenodd" clip-rule="evenodd" d="M21.5091 7.64565C22.0589 7.64565 22.5472 7.90217 22.8544 8.29895L13.9314 15.582L5.08781 8.4312C5.38349 7.9601 5.9168 7.64565 6.52558 7.64565H21.5091ZM4.84204 19.7695V9.72354L11.1875 14.8544L4.85512 19.9747C4.84649 19.9075 4.84204 19.839 4.84204 19.7695ZM5.42238 21.0071C5.71784 21.2567 6.10357 21.4078 6.52558 21.4078H21.5091C21.8718 21.4078 22.2077 21.2962 22.4825 21.1063L15.7397 15.6028L14.5272 16.5925C14.1842 16.8724 13.6846 16.8735 13.3404 16.5952L12.1096 15.5999L5.42238 21.0071ZM16.6567 14.8544L23.1466 20.1515C23.1767 20.0289 23.1926 19.901 23.1926 19.7695V9.51976L16.6567 14.8544Z" fill="white"/>
</svg>
