<svg width="37" height="37" viewBox="0 0 37 37" fill="none" xmlns="http://www.w3.org/2000/svg">
<g clip-path="url(#clip0_45_39)">
<path d="M36.9476 18.4542C36.9476 28.6457 28.6854 36.9079 18.4934 36.9079C8.30105 36.9079 0.0390625 28.6457 0.0390625 18.4542C0.0390625 8.26213 8.30134 0 18.4934 0C28.6856 0 36.9476 8.26213 36.9476 18.4542Z" fill="#DD4814"/>
<path d="M5.94497 15.9899C4.58363 15.9899 3.48071 17.0929 3.48071 18.4542C3.48071 19.8148 4.58363 20.9179 5.94497 20.9179C7.30573 20.9179 8.40865 19.8148 8.40865 18.4542C8.40865 17.0929 7.30573 15.9899 5.94497 15.9899ZM23.5366 27.1879C22.3582 27.8687 21.954 29.3747 22.6347 30.5525C23.3147 31.731 24.8207 32.1349 25.9993 31.4544C27.1776 30.7743 27.5817 29.2683 26.9011 28.0897C26.2211 26.912 24.7142 26.5081 23.5366 27.1879ZM11.2968 18.4542C11.2968 16.0194 12.5063 13.8682 14.3567 12.5657L12.5554 9.54876C10.3999 10.9897 8.79585 13.1915 8.12927 15.7704C8.90714 16.4049 9.4049 17.3711 9.4049 18.4541C9.4049 19.5364 8.90714 20.5026 8.12927 21.1373C8.79498 23.7167 10.399 25.9188 12.5554 27.3598L14.3567 24.342C12.5063 23.0402 11.2968 20.8891 11.2968 18.4542ZM18.4933 11.257C22.253 11.257 25.3376 14.1395 25.6613 17.8158L29.172 17.7641C28.9994 15.0501 27.8137 12.6135 25.992 10.8219C25.0552 11.1759 23.9729 11.1217 23.0378 10.5826C22.1008 10.0419 21.5133 9.12976 21.3527 8.13972C20.4214 7.88206 19.4595 7.75128 18.4932 7.75093C16.8478 7.74932 15.2243 8.12839 13.7498 8.85848L15.4618 11.9264C16.4113 11.4845 17.446 11.256 18.4933 11.257ZM18.4933 25.6508C17.4461 25.6518 16.4114 25.4233 15.4619 24.9814L13.7499 28.049C15.2243 28.7801 16.8479 29.1595 18.4935 29.1577C19.4598 29.1576 20.4217 29.0265 21.3529 28.7679C21.5134 27.7779 22.1011 26.8666 23.0378 26.3251C23.9738 25.785 25.0553 25.7318 25.992 26.0857C27.8138 24.2941 28.9994 21.8576 29.1723 19.1436L25.6606 19.0919C25.3376 22.7692 22.2532 25.6508 18.4933 25.6508ZM23.5357 9.71887C24.7142 10.3993 26.2204 9.99637 26.9003 8.81786C27.581 7.63936 27.1778 6.1332 25.9993 5.45245C24.8207 4.77258 23.3147 5.1764 22.6339 6.35491C21.9541 7.53284 22.3581 9.03885 23.5357 9.71887Z" fill="white"/>
</g>
<defs>
<clipPath id="clip0_45_39">
<rect width="37" height="37" fill="white"/>
</clipPath>
</defs>
</svg>
