<svg width="37" height="37" viewBox="0 0 37 37" fill="none" xmlns="http://www.w3.org/2000/svg">
<path d="M28.3281 0H8.67188C3.88253 0 0 3.88253 0 8.67188V28.3281C0 33.1175 3.88253 37 8.67188 37H28.3281C33.1175 37 37 33.1175 37 28.3281V8.67188C37 3.88253 33.1175 0 28.3281 0Z" fill="#2396ED"/>
<path d="M20.4059 17.6506H23.4002V14.9415H20.4059V17.6506ZM16.8415 17.6506H19.8356V14.9415H16.8415V17.6506ZM13.3482 17.6506H16.3424V14.9415H13.3482V17.6506ZM9.85486 17.6506H12.778V14.9415H9.85501L9.85486 17.6506ZM6.29043 17.6506H9.28469V14.9415H6.29043V17.6506ZM9.85501 14.3712H12.7779V11.6622H9.85501V14.3712ZM13.3483 14.3712H16.3424V11.6622H13.3482L13.3483 14.3712ZM16.8415 14.3712H19.8356V11.6622H16.8415V14.3712ZM16.8415 11.0918H19.8356V8.38281H16.8415V11.0918ZM32.9531 16.4388C32.9531 16.4388 31.6698 15.2268 29.0321 15.6546C28.747 13.5871 26.5369 12.3752 26.5369 12.3752C26.5369 12.3752 24.4696 14.8704 25.9666 17.6507C25.539 17.8646 24.826 18.1498 23.7566 18.1498H4.1518C3.79524 19.5043 3.79525 28.4868 13.6333 28.4868C20.6911 28.4868 25.9666 25.2076 28.4618 19.219C32.1689 19.5042 32.9531 16.4388 32.9531 16.4388Z" fill="white"/>
</svg>
