<svg width="39" height="39" viewBox="0 0 39 39" fill="none" xmlns="http://www.w3.org/2000/svg">
<rect width="37.83" height="37.83" transform="translate(0 0.195213) rotate(-0.295663)" fill="white"/>
<path d="M18.9326 3.25005C10.2239 3.29499 3.20669 10.385 3.25163 19.0937C3.26585 22.4026 4.32213 25.6231 6.27048 28.2977C8.21883 30.9723 10.9602 32.9651 14.1055 33.9933C14.8943 34.1264 15.1882 33.652 15.186 33.2374C15.1841 32.8638 15.1572 31.6235 15.1504 30.3026C11.1947 31.0528 10.1614 29.3637 9.84157 28.4779C9.66112 28.0248 8.88628 26.6307 8.21445 26.259C7.66125 25.9671 6.86937 25.2414 8.18857 25.2156C9.43053 25.1887 10.3224 26.3474 10.6211 26.8188C12.052 29.1947 14.3136 28.5131 15.2178 28.0955C15.3513 27.0702 15.7607 26.3793 16.2126 25.9829C12.7034 25.6069 9.0317 24.2655 9.00059 18.2365C8.99174 16.5215 9.59443 15.1013 10.5944 13.9928C10.4347 13.5996 9.87469 11.9868 10.7304 9.81498C10.7304 9.81498 12.0476 9.39362 15.0734 11.4067C16.3549 11.0448 17.6796 10.8593 19.0112 10.8551C20.351 10.8482 21.6917 11.0179 22.9545 11.366C25.9593 9.30134 27.2808 9.72957 27.2808 9.72957C28.1589 11.8924 27.6156 13.5109 27.46 13.9058C28.4697 15.0039 29.0885 16.3989 29.0975 18.1327C29.1287 24.1823 25.452 25.5411 21.9469 25.9533C22.52 26.4421 23.0183 27.3853 23.0259 28.8638C23.0368 30.9712 23.025 32.6658 23.0278 33.1985C23.0299 33.6115 23.3288 34.1017 24.1161 33.9401C27.2387 32.8664 29.9462 30.8411 31.8581 28.1489C33.7699 25.4567 34.7899 22.233 34.7746 18.931C34.7297 10.2223 27.6396 3.20512 18.931 3.25006" fill="#FF9900"/>
</svg>
