<svg width="29" height="29" viewBox="0 0 29 29" fill="none" xmlns="http://www.w3.org/2000/svg">
<path d="M28.4561 0H-9.53674e-06V28.9332H28.4561V0Z" fill="#FF9900"/>
<path d="M8.38501 11.8586C9.97775 16.3989 11.6267 18.2105 15.8214 20.14L14.0035 22.8079C9.18661 20.3981 6.78741 16.3359 5.65746 13.1659L8.38501 11.8586Z" fill="white"/>
<path d="M9.72106 5.59035C10.5727 5.58687 11.2203 6.32741 11.1623 7.16595C11.0709 8.48554 11.1682 9.43759 11.4301 10.6177C11.5739 11.2659 11.2485 11.9243 10.7312 12.3484C10.0341 12.92 9.50148 13.6483 9.07818 14.2752C8.49146 15.1442 6.47234 15.0818 6.02581 14.1351C5.10812 12.1895 4.48621 8.60515 5.82629 6.18347C6.03679 5.80308 6.46062 5.60367 6.8998 5.60188L9.72106 5.59035Z" fill="white"/>
<path d="M22.6494 19.9875C22.7553 19.1536 22.0883 18.4301 21.2377 18.3861C19.8993 18.3169 18.9533 18.1071 17.7976 17.7086C17.1628 17.4897 16.4614 17.7294 15.9726 18.1851C15.3138 18.7994 14.5171 19.2336 13.8355 19.5729C12.8908 20.0432 12.7108 22.0289 13.6094 22.5802C15.4562 23.7132 18.9871 24.7536 21.5844 23.7319C21.9923 23.5714 22.2439 23.1802 22.2985 22.7501L22.6494 19.9875Z" fill="white"/>
</svg>
